# xmcd
#
# Track frame offsets:
#	150
#	16348
#	32023
#	48676
#	65493
#	81134
#	98385
#	114795
#	130836
#	145963
#	163244
#
# Disc length: 2461 seconds
#
# Revision: 0
# Processed by: cddbd v1.5.1PL2 Copyright (c) Steve Scherf et al.
# Submitted via: EasyCDDAExtractor 9.0.0.1
#
DISCID=8a099b0b
DTITLE=Sam Hawksley - Anything You Want
DYEAR=2006
DGENRE=Country
TTITLE0=Adelaide
TTITLE1=Into The Blue
TTITLE2=Come Back Baby
TTITLE3=Anything You Want
TTITLE4=Doesn't Ring True
TTITLE5=Butterflies
TTITLE6=Beautiful Girl
TTITLE7=Only Cryin'
TTITLE8=There You Were
TTITLE9=As The Crow Flies
TTITLE10=Tomorrow
EXTD=
EXTT0=
EXTT1=
EXTT2=
EXTT3=
EXTT4=
EXTT5=
EXTT6=
EXTT7=
EXTT8=
EXTT9=
EXTT10=
PLAYORDER=
